<svg width="29" height="28" viewBox="0 0 29 28" fill="none" xmlns="http://www.w3.org/2000/svg">
<rect x="0.5" width="2.15385" height="2.15385" fill="black"/>
<rect x="0.5" y="2.15405" width="2.15385" height="2.15385" fill="black"/>
<rect x="0.5" y="4.30762" width="2.15385" height="2.15385" fill="black"/>
<rect x="0.5" y="6.46167" width="2.15385" height="2.15385" fill="black"/>
<rect x="0.5" y="8.61523" width="2.15385" height="2.15385" fill="black"/>
<rect x="0.5" y="10.7693" width="2.15385" height="2.15385" fill="black"/>
<rect x="0.5" y="12.9231" width="2.15385" height="2.15385" fill="black"/>
<rect x="0.5" y="15.0769" width="2.15385" height="2.15385" fill="black"/>
<rect x="0.5" y="17.2307" width="2.15385" height="2.15385" fill="black"/>
<rect x="0.5" y="19.3848" width="2.15385" height="2.15385" fill="black"/>
<rect x="0.5" y="21.5383" width="2.15385" height="2.15385" fill="black"/>
<rect x="0.5" y="23.6924" width="2.15385" height="2.15385" fill="black"/>
<rect x="0.5" y="25.8459" width="2.15385" height="2.15385" fill="black"/>
<rect x="24.1927" width="2.15385" height="2.15385" transform="rotate(90 24.1927 0)" fill="black"/>
<rect x="22.0391" width="2.15385" height="2.15385" transform="rotate(90 22.0391 0)" fill="black"/>
<rect x="19.884" width="2.15385" height="2.15385" transform="rotate(90 19.884 0)" fill="black"/>
<rect x="17.7305" width="2.15385" height="2.15385" transform="rotate(90 17.7305 0)" fill="black"/>
<rect x="15.5769" width="2.15385" height="2.15385" transform="rotate(90 15.5769 0)" fill="black"/>
<rect x="13.4231" width="2.15385" height="2.15385" transform="rotate(90 13.4231 0)" fill="black"/>
<rect x="11.2695" width="2.15385" height="2.15385" transform="rotate(90 11.2695 0)" fill="black"/>
<rect x="9.11597" width="2.15385" height="2.15385" transform="rotate(90 9.11597 0)" fill="black"/>
<rect x="6.96094" width="2.15385" height="2.15385" transform="rotate(90 6.96094 0)" fill="black"/>
<rect x="4.80737" width="2.15385" height="2.15385" transform="rotate(90 4.80737 0)" fill="black"/>
<rect x="26.3463" y="2.15405" width="2.15385" height="2.15385" transform="rotate(90 26.3463 2.15405)" fill="black"/>
<rect x="6.96094" y="4.30762" width="2.15385" height="2.15385" transform="rotate(90 6.96094 4.30762)" fill="black"/>
<rect x="6.96094" y="2.15405" width="2.15385" height="2.15385" transform="rotate(90 6.96094 2.15405)" fill="black"/>
<rect x="6.96094" y="6.46167" width="2.15385" height="2.15385" transform="rotate(90 6.96094 6.46167)" fill="black"/>
<rect x="22.0391" y="4.30762" width="2.15385" height="2.15385" transform="rotate(90 22.0391 4.30762)" fill="black"/>
<rect x="22.0391" y="2.15405" width="2.15385" height="2.15385" transform="rotate(90 22.0391 2.15405)" fill="black"/>
<rect x="22.0391" y="6.46167" width="2.15385" height="2.15385" transform="rotate(90 22.0391 6.46167)" fill="black"/>
<rect x="17.7305" y="4.30762" width="2.15385" height="2.15385" transform="rotate(90 17.7305 4.30762)" fill="black"/>
<rect x="17.7305" y="2.15405" width="2.15385" height="2.15385" transform="rotate(90 17.7305 2.15405)" fill="black"/>
<rect x="17.7305" y="6.46167" width="2.15385" height="2.15385" transform="rotate(90 17.7305 6.46167)" fill="black"/>
<rect x="22.0391" y="8.61523" width="2.15385" height="2.15385" transform="rotate(90 22.0391 8.61523)" fill="black"/>
<rect x="19.884" y="8.61523" width="2.15385" height="2.15385" transform="rotate(90 19.884 8.61523)" fill="black"/>
<rect x="17.7305" y="8.61523" width="2.15385" height="2.15385" transform="rotate(90 17.7305 8.61523)" fill="black"/>
<rect x="15.5769" y="8.61523" width="2.15385" height="2.15385" transform="rotate(90 15.5769 8.61523)" fill="black"/>
<rect x="13.4231" y="8.61523" width="2.15385" height="2.15385" transform="rotate(90 13.4231 8.61523)" fill="black"/>
<rect x="11.2695" y="8.61523" width="2.15385" height="2.15385" transform="rotate(90 11.2695 8.61523)" fill="black"/>
<rect x="9.11597" y="8.61523" width="2.15385" height="2.15385" transform="rotate(90 9.11597 8.61523)" fill="black"/>
<rect x="6.96094" y="8.61523" width="2.15385" height="2.15385" transform="rotate(90 6.96094 8.61523)" fill="black"/>
<rect x="24.1927" y="15.0769" width="2.15385" height="2.15385" transform="rotate(90 24.1927 15.0769)" fill="black"/>
<rect x="22.0391" y="15.0769" width="2.15385" height="2.15385" transform="rotate(90 22.0391 15.0769)" fill="black"/>
<rect x="19.884" y="15.0769" width="2.15385" height="2.15385" transform="rotate(90 19.884 15.0769)" fill="black"/>
<rect x="17.7305" y="15.0769" width="2.15385" height="2.15385" transform="rotate(90 17.7305 15.0769)" fill="black"/>
<rect x="15.5769" y="15.0769" width="2.15385" height="2.15385" transform="rotate(90 15.5769 15.0769)" fill="black"/>
<rect x="13.4231" y="15.0769" width="2.15385" height="2.15385" transform="rotate(90 13.4231 15.0769)" fill="black"/>
<rect x="11.2695" y="15.0769" width="2.15385" height="2.15385" transform="rotate(90 11.2695 15.0769)" fill="black"/>
<rect x="9.11597" y="15.0769" width="2.15385" height="2.15385" transform="rotate(90 9.11597 15.0769)" fill="black"/>
<rect x="6.96094" y="15.0769" width="2.15385" height="2.15385" transform="rotate(90 6.96094 15.0769)" fill="black"/>
<rect x="24.1927" y="17.2307" width="2.15385" height="2.15385" transform="rotate(90 24.1927 17.2307)" fill="black"/>
<rect x="6.96094" y="17.2307" width="2.15385" height="2.15385" transform="rotate(90 6.96094 17.2307)" fill="black"/>
<rect x="24.1927" y="19.3848" width="2.15385" height="2.15385" transform="rotate(90 24.1927 19.3848)" fill="black"/>
<rect x="6.96094" y="19.3848" width="2.15385" height="2.15385" transform="rotate(90 6.96094 19.3848)" fill="black"/>
<rect x="24.1927" y="21.5383" width="2.15385" height="2.15385" transform="rotate(90 24.1927 21.5383)" fill="black"/>
<rect x="6.96094" y="21.5383" width="2.15385" height="2.15385" transform="rotate(90 6.96094 21.5383)" fill="black"/>
<rect x="6.96094" y="23.6924" width="2.15385" height="2.15385" transform="rotate(90 6.96094 23.6924)" fill="black"/>
<rect x="24.1927" y="23.6924" width="2.15385" height="2.15385" transform="rotate(90 24.1927 23.6924)" fill="black"/>
<rect x="26.3463" y="25.8459" width="2.15385" height="2.15385" transform="rotate(90 26.3463 25.8459)" fill="black"/>
<rect x="24.1927" y="25.8459" width="2.15385" height="2.15385" transform="rotate(90 24.1927 25.8459)" fill="black"/>
<rect x="22.0391" y="25.8459" width="2.15385" height="2.15385" transform="rotate(90 22.0391 25.8459)" fill="black"/>
<rect x="19.884" y="25.8459" width="2.15385" height="2.15385" transform="rotate(90 19.884 25.8459)" fill="black"/>
<rect x="17.7305" y="25.8459" width="2.15385" height="2.15385" transform="rotate(90 17.7305 25.8459)" fill="black"/>
<rect x="15.5769" y="25.8459" width="2.15385" height="2.15385" transform="rotate(90 15.5769 25.8459)" fill="black"/>
<rect x="13.4231" y="25.8459" width="2.15385" height="2.15385" transform="rotate(90 13.4231 25.8459)" fill="black"/>
<rect x="11.2695" y="25.8459" width="2.15385" height="2.15385" transform="rotate(90 11.2695 25.8459)" fill="black"/>
<rect x="9.11597" y="25.8459" width="2.15385" height="2.15385" transform="rotate(90 9.11597 25.8459)" fill="black"/>
<rect x="6.96094" y="25.8459" width="2.15385" height="2.15385" transform="rotate(90 6.96094 25.8459)" fill="black"/>
<rect x="4.80737" y="25.8459" width="2.15385" height="2.15385" transform="rotate(90 4.80737 25.8459)" fill="black"/>
<rect x="28.5" y="28" width="2.15385" height="2.15385" transform="rotate(-180 28.5 28)" fill="black"/>
<rect x="28.5" y="25.8459" width="2.15385" height="2.15385" transform="rotate(-180 28.5 25.8459)" fill="black"/>
<rect x="28.5" y="23.6924" width="2.15385" height="2.15385" transform="rotate(-180 28.5 23.6924)" fill="black"/>
<rect x="28.5" y="21.5383" width="2.15385" height="2.15385" transform="rotate(-180 28.5 21.5383)" fill="black"/>
<rect x="28.5" y="19.3848" width="2.15385" height="2.15385" transform="rotate(-180 28.5 19.3848)" fill="black"/>
<rect x="28.5" y="17.2307" width="2.15385" height="2.15385" transform="rotate(-180 28.5 17.2307)" fill="black"/>
<rect x="28.5" y="15.0769" width="2.15385" height="2.15385" transform="rotate(-180 28.5 15.0769)" fill="black"/>
<rect x="28.5" y="12.9231" width="2.15385" height="2.15385" transform="rotate(-180 28.5 12.9231)" fill="black"/>
<rect x="28.5" y="10.7693" width="2.15385" height="2.15385" transform="rotate(-180 28.5 10.7693)" fill="black"/>
<rect x="28.5" y="8.61523" width="2.15385" height="2.15385" transform="rotate(-180 28.5 8.61523)" fill="black"/>
<rect x="28.5" y="6.46167" width="2.15385" height="2.15385" transform="rotate(-180 28.5 6.46167)" fill="black"/>
</svg>
